<svg xmlns="http://www.w3.org/2000/svg" viewBox="0 0 200 240" fill="none">
  <rect width="200" height="240" rx="16" fill="#F5F3FA"/>
  <ellipse cx="100" cy="200" rx="50" ry="7" fill="#C4B8D9" opacity="0.35"/>
  <path d="M100 195 L100 150" stroke="#8B7FA8" stroke-width="3" stroke-linecap="round"/>
  <ellipse cx="85" cy="175" rx="8" ry="4" fill="#A8C898" transform="rotate(-20 85 175)"/>
  <ellipse cx="115" cy="180" rx="8" ry="4" fill="#A8C898" transform="rotate(15 115 180)"/>
  <g fill="#9B8EC4">
    <ellipse cx="100" cy="95" rx="5" ry="12"/><ellipse cx="88" cy="105" rx="5" ry="12" transform="rotate(-20 88 105)"/>
    <ellipse cx="112" cy="105" rx="5" ry="12" transform="rotate(20 112 105)"/>
    <ellipse cx="92" cy="118" rx="5" ry="11" transform="rotate(-10 92 118)"/>
    <ellipse cx="108" cy="118" rx="5" ry="11" transform="rotate(10 108 118)"/>
    <ellipse cx="100" cy="128" rx="5" ry="12"/>
  </g>
  <g fill="#B8A8D8" opacity="0.7">
    <ellipse cx="95" cy="108" rx="4" ry="10"/><ellipse cx="105" cy="108" rx="4" ry="10"/>
    <ellipse cx="100" cy="118" rx="4" ry="10"/>
  </g>
</svg>
